<?xml version="1.0" encoding="iso-8859-1"?>
<!-- Generator: Adobe Illustrator 19.0.0, SVG Export Plug-In . SVG Version: 6.00 Build 0)  -->
<svg version="1.1" id="Capa_1" xmlns="http://www.w3.org/2000/svg" xmlns:xlink="http://www.w3.org/1999/xlink" x="0px" y="0px"
	 viewBox="0 0 512 512" style="enable-background:new 0 0 512 512;" xml:space="preserve">
<rect x="128" y="93.867" style="fill:#DA1C4B;" width="256" height="119.467"/>
<rect x="145.067" y="59.733" style="fill:#F98C96;" width="51.2" height="34.133"/>
<g>
	<rect x="128" y="298.667" style="fill:#7FCAC9;" width="51.2" height="34.133"/>
	<rect x="42.667" y="298.667" style="fill:#7FCAC9;" width="51.2" height="34.133"/>
</g>
<g>
	<rect x="230.4" y="59.733" style="fill:#F98C96;" width="51.2" height="34.133"/>
	<rect x="315.733" y="59.733" style="fill:#F98C96;" width="51.2" height="34.133"/>
</g>
<rect x="110.933" y="332.8" style="fill:#195C85;" width="273.067" height="119.467"/>
<rect x="213.333" y="213.333" style="fill:#55B56A;" width="290.133" height="119.467"/>
<rect x="418.133" y="179.2" style="fill:#C8D952;" width="51.2" height="34.133"/>
<rect x="8.533" y="332.8" style="fill:#238892;" width="102.4" height="119.467"/>
<g>
	<rect x="153.6" y="136.533" style="fill:#CFDFE8;" width="17.067" height="51.2"/>
	<rect x="469.333" y="256" style="fill:#CFDFE8;" width="17.067" height="51.2"/>
</g>
<path d="M503.467,204.8h-25.6v-25.6c0-4.71-3.823-8.533-8.533-8.533h-51.2c-4.71,0-8.533,3.823-8.533,8.533v25.6h-17.067V93.867
	c0-4.71-3.823-8.533-8.533-8.533h-8.533v-25.6c0-4.71-3.823-8.533-8.533-8.533h-51.2c-4.71,0-8.533,3.823-8.533,8.533v25.6h-17.067
	v-25.6c0-4.71-3.823-8.533-8.533-8.533h-51.2c-4.71,0-8.533,3.823-8.533,8.533v25.6H204.8v-25.6c0-4.71-3.823-8.533-8.533-8.533
	h-51.2c-4.71,0-8.533,3.823-8.533,8.533v25.6H128c-4.71,0-8.533,3.823-8.533,8.533v119.467c0,4.71,3.823,8.533,8.533,8.533h76.8
	v102.4h-17.067v-25.6c0-4.71-3.823-8.533-8.533-8.533H128c-4.71,0-8.533,3.823-8.533,8.533v25.6H102.4v-25.6
	c0-4.71-3.823-8.533-8.533-8.533h-51.2c-4.71,0-8.533,3.823-8.533,8.533v25.6h-25.6C3.823,324.267,0,328.09,0,332.8v119.467
	c0,4.71,3.823,8.533,8.533,8.533H384c4.71,0,8.533-3.823,8.533-8.533V341.333h110.933c4.71,0,8.533-3.823,8.533-8.533V213.333
	C512,208.623,508.177,204.8,503.467,204.8z M426.667,187.733H460.8V204.8h-34.133V187.733z M324.267,68.267H358.4v17.067h-34.133
	V68.267z M238.933,68.267h34.133v17.067h-34.133V68.267z M153.6,68.267h34.133v17.067H153.6V68.267z M136.533,102.4h238.933v102.4
	H136.533V102.4z M136.533,307.2h34.133v17.067h-34.133V307.2z M51.2,307.2h34.133v17.067H51.2V307.2z M17.067,341.333H102.4v102.4
	H17.067V341.333z M375.467,443.733h-256v-102.4h256V443.733z M494.933,324.267H221.867v-102.4h273.067V324.267z"/>
<rect x="153.6" y="136.533" width="17.067" height="51.2"/>
<rect x="469.333" y="256" width="17.067" height="51.2"/>
<g>
</g>
<g>
</g>
<g>
</g>
<g>
</g>
<g>
</g>
<g>
</g>
<g>
</g>
<g>
</g>
<g>
</g>
<g>
</g>
<g>
</g>
<g>
</g>
<g>
</g>
<g>
</g>
<g>
</g>
</svg>
